<?xml version="1.0" encoding="UTF-8"?>
<svg id="Layer_1" data-name="Layer 1" xmlns="http://www.w3.org/2000/svg" xmlns:xlink="http://www.w3.org/1999/xlink" viewBox="0 0 239.28 45.4">
  <defs>
    <style>
      .cls-1 {
        fill: #222;
      }

      .cls-2 {
        fill: url(#linear-gradient-2);
        isolation: isolate;
        opacity: .35;
      }

      .cls-3 {
        fill: url(#linear-gradient-3);
      }

      .cls-4 {
        fill: url(#linear-gradient);
      }
    </style>
    <linearGradient id="linear-gradient" x1="2.2" y1="25.3" x2="55.45" y2="25.3" gradientTransform="translate(0 48) scale(1 -1)" gradientUnits="userSpaceOnUse">
      <stop offset="0" stop-color="#0068ae"/>
      <stop offset="1" stop-color="#00b0d6"/>
    </linearGradient>
    <linearGradient id="linear-gradient-2" x1="28.68" y1="33.28" x2="25.91" y2="38.36" gradientTransform="translate(0 48) scale(1 -1)" gradientUnits="userSpaceOnUse">
      <stop offset=".37" stop-color="#003682"/>
      <stop offset=".43" stop-color="#005095"/>
      <stop offset=".51" stop-color="#006aa8"/>
      <stop offset=".59" stop-color="#007eb6"/>
      <stop offset=".69" stop-color="#008dc1"/>
      <stop offset=".8" stop-color="#0095c7"/>
      <stop offset="1" stop-color="#0098c9"/>
    </linearGradient>
    <linearGradient id="linear-gradient-3" x1="11.05" y1="43.37" x2="21.67" y2="26.76" gradientTransform="translate(0 48) scale(1 -1)" gradientUnits="userSpaceOnUse">
      <stop offset=".12" stop-color="#00b0d6"/>
      <stop offset=".23" stop-color="#00a5cf"/>
      <stop offset=".42" stop-color="#0087bf"/>
      <stop offset=".6" stop-color="#0068ae"/>
    </linearGradient>
  </defs>
  <path class="cls-1" d="M118.82,6.6c-2.69-1.52-5.92-2.28-9.67-2.28-2.77,0-5.24,.43-7.41,1.3-2.17,.86-4.02,2.11-5.53,3.74-1.52,1.63-2.67,3.61-3.47,5.93s-1.2,4.87-1.2,7.66,.38,5.24,1.15,7.58c.77,2.34,1.9,4.34,3.4,6s3.37,2.95,5.61,3.87c2.24,.91,4.78,1.37,7.61,1.37s5.38-.44,7.58-1.33c2.21-.89,4.07-2.17,5.58-3.85s2.65-3.66,3.41-5.95,1.14-4.83,1.14-7.63c0-3.79-.69-7.08-2.07-9.89s-3.42-4.97-6.11-6.5l-.02-.02Zm-.64,23.57c-.93,1.96-2.18,3.41-3.75,4.35s-3.3,1.41-5.17,1.41c-1.47,0-2.81-.27-4.04-.82-1.23-.54-2.31-1.36-3.26-2.46-.95-1.09-1.68-2.47-2.2-4.14-.52-1.66-.78-3.52-.78-5.58s.26-3.88,.78-5.52c.52-1.64,1.23-2.98,2.12-4.04,.9-1.05,1.97-1.86,3.21-2.41s2.6-.83,4.06-.83c2.06,0,3.88,.5,5.47,1.49,1.59,1,2.81,2.47,3.67,4.41s1.28,4.24,1.28,6.89c0,2.87-.47,5.28-1.4,7.24h.01ZM87.61,4.93h-6.79c-.78,0-1.54,.27-2.14,.77l-.57,.48c-1.23,1.02-3.02,1.03-4.26,.02l-.63-.51c-.6-.49-1.35-.75-2.12-.75h-6.8c-1.2,0-2.12,.27-2.75,.81s-.95,1.28-.95,2.22,.3,1.63,.91,2.19c.61,.55,1.54,.83,2.79,.83h6.96c.58,0,1.04,.47,1.04,1.04v25.26c0,1.5,.34,2.62,1.02,3.36s1.57,1.11,2.66,1.11,1.94-.37,2.62-1.1c.67-.73,1.01-1.86,1.01-3.37V12.02c0-.58,.47-1.04,1.04-1.04h6.96c1.25,0,2.19-.28,2.82-.83s.94-1.28,.94-2.19-.31-1.64-.93-2.2c-.62-.56-1.56-.84-2.83-.84h0Zm148.54,.29c-.62-.6-1.39-.9-2.31-.9-.59,0-1.1,.11-1.51,.32-.41,.21-.79,.52-1.12,.93-.34,.4-.65,.84-.93,1.3-.28,.46-.63,1.03-1.04,1.7l-6.84,10.99-6.77-10.99c-1.04-1.7-1.82-2.83-2.33-3.4-.52-.57-1.28-.85-2.28-.85s-1.76,.3-2.41,.91c-.65,.61-.98,1.33-.98,2.17,0,.51,.16,1.11,.48,1.8,.32,.69,.87,1.65,1.64,2.89l8.84,13.71v11.48c0,1.52,.34,2.64,1.01,3.37s1.56,1.1,2.64,1.1,1.95-.37,2.64-1.11,1.04-1.86,1.04-3.36v-11.48l9.06-13.91c.76-1.14,1.29-2.03,1.61-2.67,.31-.64,.47-1.28,.47-1.93,0-.79-.31-1.49-.93-2.09l.02,.02Zm-35.27-.28h-17.29c-1.04,0-1.89,.15-2.56,.46-.67,.3-1.16,.79-1.47,1.46s-.47,1.53-.47,2.58v27.86c0,1.5,.34,2.62,1.03,3.36,.68,.74,1.57,1.11,2.66,1.11s1.95-.37,2.63-1.1c.68-.73,1.02-1.86,1.02-3.37v-11.93h12.08c1.1,0,1.93-.25,2.49-.74,.56-.49,.84-1.16,.84-2s-.28-1.51-.83-2.01-1.39-.75-2.51-.75h-12.08V10.59h14.45c1.17,0,2.04-.26,2.61-.78s.85-1.21,.85-2.06-.28-1.52-.85-2.04-1.44-.78-2.61-.78h0Zm-29.89-.62c-1.07,0-1.94,.37-2.62,1.11-.68,.74-1.01,1.85-1.01,3.33v28.53c0,1.48,.34,2.6,1.03,3.35,.68,.75,1.55,1.12,2.61,1.12s2-.37,2.68-1.11,1.02-1.86,1.02-3.36V8.76c0-1.5-.34-2.61-1.02-3.35-.68-.73-1.58-1.1-2.68-1.1h-.01Zm-14.2,3.9c-1.45-1.27-3.06-2.13-4.84-2.59s-3.91-.69-6.4-.69h-9.56c-1.58,0-2.73,.35-3.43,1.06-.71,.71-1.06,1.85-1.06,3.43v26.55c0,1.17,.1,2.12,.31,2.85,.21,.73,.65,1.3,1.32,1.7,.67,.4,1.68,.61,3.01,.61h9.56c1.66,0,3.16-.11,4.48-.32,1.33-.21,2.56-.58,3.72-1.11,1.15-.53,2.21-1.23,3.19-2.1,1.23-1.14,2.25-2.42,3.04-3.87,.79-1.44,1.37-3.06,1.75-4.85,.38-1.79,.57-3.78,.57-5.95,0-6.59-1.89-11.49-5.66-14.72h0Zm-5.46,25.39c-.54,.48-1.19,.85-1.93,1.11-.74,.26-1.46,.43-2.15,.49-.69,.07-1.65,.1-2.87,.1h-5.56V10.73h4.84c2.24,0,4.15,.24,5.73,.73s2.91,1.62,3.99,3.4c1.08,1.78,1.62,4.45,1.62,8.03,0,5.07-1.23,8.64-3.68,10.72h0Z"/>
  <g>
    <path class="cls-4" d="M21.99,23.03c0,.7,.06,1.39,.18,2.06,.11,.64,.28,1.27,.5,1.87,1.77,4.94,6.78,8.34,12.48,7.63,5.4-.67,9.7-5.21,10.12-10.64,.05-.71,.05-1.41-.02-2.09-.13-1.27-.46-2.49-.96-3.61-1.82-4.06-5.9-6.88-10.63-6.88-.74,0-1.46,.07-2.16,.2h0v-.68s-.01-1.58-.01-1.58h0v-.82l-7.52-.1v8.16c-1.24,1.85-1.96,4.08-1.96,6.47h-.02Zm10.46-4.77c.07-.02,.14-.03,.22-.05,.61-.12,1.26-.13,1.92-.01,1.91,.35,3.49,1.9,3.88,3.81,.52,2.55-.94,4.85-3.12,5.66-.16,.06-.33,.11-.5,.15-.62,.16-1.29,.19-1.97,.09-2.02-.3-3.71-1.93-4.07-3.95-.49-2.7,1.22-5.09,3.64-5.7Zm14.28-12.54c-3.65-2.67-8.15-3.92-12.68-3.92h-5.42c-2.59,0-4.68,2.1-4.68,4.68v2.83h10.56c2.49,0,4.88,.67,6.96,1.94h0c.41,.25,.8,.51,1.18,.81,.48,.36,.93,.76,1.36,1.19,2.89,2.89,4.3,6.87,3.85,11.01-.74,6.89-6.91,11.93-13.84,11.93h-12.96V11.78h0v-1.23c0-2.19-.03-5.38-.04-7.27,0-.87-.71-1.57-1.59-1.57H6.84c-2.56,0-4.64,2.07-4.64,4.63v1.25c0,.89,.72,1.61,1.6,1.61h7.15c.33,0,.65,.08,.94,.19,.04,.01,.08,.03,.12,.05,.7,.32,1.23,.94,1.44,1.7,.04,.15,.07,.3,.08,.46,0,.08,.02,.15,.02,.23v27.15c0,2.6,2.11,4.71,4.71,4.71h15.94c5.31,0,10.22-1.95,13.97-5.19,4.39-3.78,7.21-9.31,7.28-15.52,.08-6.81-3.07-13.15-8.73-17.28h.01Z"/>
    <path class="cls-2" d="M31.49,11.59s-.04,0-.06,.01c-.18,.04-.37,.08-.58,.13-1.28,.34-3.08,1.08-4.75,2.47-.21,.17-.42,.36-.62,.55-.64,.62-1.14,1.25-1.52,1.83v-7.27h7.51v2.27h.02Z"/>
    <path class="cls-3" d="M21.07,11.77v1.9s-.08-.07-.12-.11c-.03-.03-.07-.06-.1-.09,0,0-.02-.02-.03-.02,0,0-.01,0-.02-.01-.03-.03-.06-.05-.09-.08,0,0-.02-.02-.03-.02-.03-.03-.06-.05-.09-.08,0,0-.02-.02-.03-.02-.03-.03-.07-.05-.1-.08h-.01s-.08-.08-.13-.11h0s-.08-.06-.11-.09c0,0-.02-.01-.03-.02h-.01s-.07-.06-.11-.08c-.04-.03-.08-.06-.12-.09h0s-.07-.05-.1-.08c-.02-.01-.04-.03-.06-.04-.02-.02-.05-.04-.07-.05l-.02-.02s-.04-.03-.06-.04c-.06-.04-.12-.08-.17-.12-.04-.03-.09-.06-.13-.09-.02-.02-.05-.03-.07-.05s-.05-.03-.07-.05-.05-.03-.07-.05-.05-.03-.07-.05-.05-.03-.07-.05h-.02s-.09-.06-.13-.08c-.12-.08-.25-.16-.38-.23-.04-.03-.08-.05-.13-.08-.04-.02-.07-.04-.11-.06-.03-.02-.06-.04-.09-.05,0,0-.02,0-.03-.01h0s-.06-.03-.09-.05c-.07-.04-.14-.08-.2-.11h0s-.06-.04-.1-.05h-.01s-.06-.03-.08-.05c-.04-.02-.07-.04-.11-.06s-.07-.04-.11-.06c-.14-.07-.29-.15-.43-.21-.04-.02-.07-.04-.11-.05-.14-.06-.27-.13-.41-.19-.05-.02-.09-.04-.14-.06-.04-.02-.07-.03-.11-.05s-.07-.03-.11-.05c-.02,0-.04-.02-.06-.03h-.02s-.04-.02-.06-.02c-.03-.01-.05-.02-.08-.03-.04-.01-.07-.03-.11-.04-.04-.02-.08-.03-.12-.05h0s-.06-.02-.1-.04c-.04-.02-.08-.03-.12-.05-.04-.01-.07-.03-.11-.04s-.08-.03-.12-.04h-.01s-.06-.02-.09-.03c-.03-.01-.07-.02-.1-.04-.03-.01-.07-.02-.1-.04-.02,0-.04-.01-.06-.02-.06-.02-.11-.04-.17-.06-.02,0-.04-.01-.07-.02-.05-.02-.11-.03-.16-.05-.02,0-.05-.01-.07-.02-.06-.02-.11-.03-.17-.05-.02,0-.04-.01-.06-.02h0s-.06-.02-.09-.03h-.01s-.07-.02-.11-.03c-.04-.01-.08-.02-.11-.03h-.02s-.07-.02-.1-.03c-.04-.01-.08-.02-.12-.03-.04-.01-.08-.02-.12-.03-.02,0-.05-.01-.07-.02-.02,0-.05-.01-.07-.02-.03,0-.06-.01-.09-.02-.02,0-.04,0-.05-.01-.03,0-.05-.01-.08-.02-.03,0-.06-.01-.09-.02h-.12s-.09-.02-.13-.03c-.03,0-.06-.01-.09-.02h-.05s-.07-.01-.1-.02c-.03,0-.07-.01-.1-.02h-.03s-.07-.01-.11-.02c-.04,0-.07-.01-.11-.02h-.01s-.07-.01-.1-.02h-.01s-.08-.01-.12-.02h-.12s-.08-.02-.12-.03c-.13-.03-.27-.05-.4-.06H3.8c-.89,0-1.6-.73-1.6-1.62v-1.33c0-2.64,2.05-4.69,4.57-4.69h12.66c.87,0,1.58,.7,1.59,1.57,.01,1.89,.04,5.08,.04,7.27v1.23h0Z"/>
  </g>
</svg>